<?xml version="1.0" encoding="UTF-8" standalone="no"?>
<!DOCTYPE svg PUBLIC "-//W3C//DTD SVG 1.1//EN" "http://www.w3.org/Graphics/SVG/1.1/DTD/svg11.dtd">
<svg width="100%" height="100%" viewBox="0 0 1667 389" version="1.1" xmlns="http://www.w3.org/2000/svg" xmlns:xlink="http://www.w3.org/1999/xlink" xml:space="preserve" xmlns:serif="http://www.serif.com/" style="fill-rule:evenodd;clip-rule:evenodd;stroke-linejoin:round;stroke-miterlimit:2;">
    <rect id="logo-text" x="0" y="0" width="1666.74" height="388.117" style="fill:none;"/>
    <path d="M33.194,286.118l0,-165.831l58.273,0l3.1,33.476l-13.329,3.72c2.273,-7.852 6.354,-14.827 12.244,-20.923c5.889,-6.096 12.967,-10.9 21.233,-14.413c8.266,-3.513 17.048,-5.269 26.347,-5.269c12.399,0 22.937,2.583 31.616,7.749c8.679,5.166 15.24,12.76 19.683,22.782c4.443,10.022 6.664,22.163 6.664,36.421l0,102.289l-62.923,0l0,-97.019c-0,-4.546 -0.723,-8.369 -2.17,-11.469c-1.447,-3.1 -3.616,-5.476 -6.509,-7.129c-2.893,-1.653 -6.303,-2.48 -10.229,-2.48c-3.1,0 -5.941,0.465 -8.524,1.395c-2.583,0.93 -4.804,2.325 -6.664,4.185c-1.86,1.86 -3.306,3.926 -4.34,6.199c-1.033,2.273 -1.55,4.856 -1.55,7.749l0,98.569l-62.923,0Z" style="fill:url(#_Linear1);fill-rule:nonzero;"/>
    <path d="M240.251,286.118l0,-165.831l62.923,0l0,165.831l-62.923,0Zm31.616,-195.898c-11.159,0 -19.889,-2.583 -26.192,-7.749c-6.303,-5.166 -9.454,-12.502 -9.454,-22.008c0,-8.679 3.203,-15.808 9.609,-21.388c6.406,-5.579 15.085,-8.369 26.037,-8.369c11.159,-0 19.889,2.583 26.192,7.749c6.303,5.166 9.454,12.502 9.454,22.008c0,8.679 -3.203,15.808 -9.609,21.388c-6.406,5.579 -15.085,8.369 -26.037,8.369Z" style="fill:url(#_Linear2);fill-rule:nonzero;"/>
    <path d="M352.769,286.118l0,-166.451c0,-11.779 2.531,-22.524 7.594,-32.236c5.063,-9.712 12.192,-17.513 21.388,-23.402c9.196,-5.889 19.993,-8.834 32.391,-8.834c8.472,0 16.325,1.137 23.557,3.41c7.233,2.273 14.052,5.373 20.458,9.299l-16.428,44.945c-2.686,-0.62 -5.063,-1.085 -7.129,-1.395c-2.066,-0.31 -3.823,-0.465 -5.269,-0.465c-3.306,0 -5.941,0.62 -7.904,1.86c-1.963,1.24 -3.41,3.048 -4.34,5.424c-0.93,2.376 -1.395,5.321 -1.395,8.834l0,159.012l-62.923,0Zm-22.627,-110.348l0,-49.594l115.927,0l0,49.594l-115.927,0Z" style="fill:url(#_Linear3);fill-rule:nonzero;"/>
    <path d="M479.234,286.118l0,-207.677l62.923,0l0,207.677l-62.923,0Zm-25.727,-113.137l0,-52.694l115.927,0l0,52.694l-115.927,0Z" style="fill:url(#_Linear4);fill-rule:nonzero;"/>
    <path d="M613.139,357.41l41.225,-97.329l0.62,25.417l-77.801,-165.211l70.052,0l22.937,55.174c2.48,5.786 4.598,11.262 6.354,16.428c1.756,5.166 3.048,10.022 3.875,14.568l-6.199,5.579c0.827,-2.273 2.066,-5.838 3.72,-10.694c1.653,-4.856 3.513,-10.487 5.579,-16.893l21.698,-64.163l70.052,0l-72.222,165.831l-29.137,71.292l-60.753,0Z" style="fill:url(#_Linear5);fill-rule:nonzero;"/>
    <path d="M849.953,286.118l0,-159.942l-66.952,0l0,-57.034l202.717,0l0,57.034l-68.812,0l0,159.942l-66.952,0Z" style="fill:url(#_Linear6);fill-rule:nonzero;"/>
    <path d="M1066.619,289.218c-17.978,0 -33.993,-3.72 -48.045,-11.159c-14.052,-7.439 -25.107,-17.616 -33.166,-30.532c-8.059,-12.915 -12.089,-27.742 -12.089,-44.48c0,-16.738 4.03,-31.565 12.089,-44.48c8.059,-12.915 19.115,-23.092 33.166,-30.532c14.052,-7.439 30.067,-11.159 48.045,-11.159c17.978,0 33.941,3.72 47.89,11.159c13.948,7.439 24.901,17.616 32.856,30.532c7.956,12.915 11.934,27.742 11.934,44.48c0,16.738 -3.978,31.565 -11.934,44.48c-7.956,12.915 -18.908,23.092 -32.856,30.532c-13.948,7.439 -29.912,11.159 -47.89,11.159Zm0,-52.694c5.579,0 10.59,-1.447 15.033,-4.34c4.443,-2.893 7.904,-6.871 10.384,-11.934c2.48,-5.063 3.72,-10.797 3.72,-17.203c0,-6.613 -1.24,-12.45 -3.72,-17.513c-2.48,-5.063 -5.941,-9.041 -10.384,-11.934c-4.443,-2.893 -9.454,-4.34 -15.033,-4.34c-5.786,0 -10.9,1.447 -15.343,4.34c-4.443,2.893 -7.956,6.871 -10.539,11.934c-2.583,5.063 -3.875,10.9 -3.875,17.513c0,6.406 1.292,12.14 3.875,17.203c2.583,5.063 6.096,9.041 10.539,11.934c4.443,2.893 9.557,4.34 15.343,4.34Z" style="fill:url(#_Linear7);fill-rule:nonzero;"/>
    <path d="M1271.196,289.218c-17.978,0 -33.993,-3.72 -48.045,-11.159c-14.052,-7.439 -25.107,-17.616 -33.166,-30.532c-8.059,-12.915 -12.089,-27.742 -12.089,-44.48c0,-16.738 4.03,-31.565 12.089,-44.48c8.059,-12.915 19.115,-23.092 33.166,-30.532c14.052,-7.439 30.067,-11.159 48.045,-11.159c17.978,0 33.941,3.72 47.89,11.159c13.948,7.439 24.901,17.616 32.856,30.532c7.956,12.915 11.934,27.742 11.934,44.48c0,16.738 -3.978,31.565 -11.934,44.48c-7.956,12.915 -18.908,23.092 -32.856,30.532c-13.948,7.439 -29.912,11.159 -47.89,11.159Zm0,-52.694c5.579,0 10.59,-1.447 15.033,-4.34c4.443,-2.893 7.904,-6.871 10.384,-11.934c2.48,-5.063 3.72,-10.797 3.72,-17.203c0,-6.613 -1.24,-12.45 -3.72,-17.513c-2.48,-5.063 -5.941,-9.041 -10.384,-11.934c-4.443,-2.893 -9.454,-4.34 -15.033,-4.34c-5.786,0 -10.9,1.447 -15.343,4.34c-4.443,2.893 -7.956,6.871 -10.539,11.934c-2.583,5.063 -3.875,10.9 -3.875,17.513c0,6.406 1.292,12.14 3.875,17.203c2.583,5.063 6.096,9.041 10.539,11.934c4.443,2.893 9.557,4.34 15.343,4.34Z" style="fill:url(#_Linear8);fill-rule:nonzero;"/>
    <rect x="1394.872" y="56.744" width="62.923" height="229.374" style="fill:url(#_Linear9);fill-rule:nonzero;"/>
    <path d="M1557.914,289.218c-17.978,0 -33.631,-2.738 -46.96,-8.214c-13.329,-5.476 -23.712,-12.347 -31.152,-20.613l36.576,-31.306c6.613,5.786 14.207,10.074 22.782,12.864c8.576,2.79 15.757,4.185 21.543,4.185c2.066,0 3.875,-0.155 5.424,-0.465c1.55,-0.31 2.79,-0.827 3.72,-1.55c0.93,-0.723 1.653,-1.498 2.17,-2.325c0.517,-0.827 0.775,-1.86 0.775,-3.1c0,-3.1 -1.653,-5.373 -4.959,-6.819c-1.86,-0.827 -4.908,-1.86 -9.144,-3.1c-4.236,-1.24 -9.764,-2.686 -16.583,-4.34c-8.059,-2.066 -15.447,-4.649 -22.163,-7.749c-6.716,-3.1 -12.45,-6.716 -17.203,-10.849c-4.959,-4.546 -8.834,-9.712 -11.624,-15.498c-2.79,-5.786 -4.185,-12.295 -4.185,-19.528c0,-8.472 1.963,-16.015 5.889,-22.627c3.926,-6.613 9.299,-12.244 16.118,-16.893c6.819,-4.649 14.465,-8.214 22.937,-10.694c8.472,-2.48 17.151,-3.72 26.037,-3.72c10.126,0 19.579,0.982 28.362,2.945c8.782,1.963 17.048,4.753 24.797,8.369c7.749,3.616 14.827,7.904 21.233,12.864l-31.926,35.646c-3.513,-2.893 -7.594,-5.683 -12.244,-8.369c-4.649,-2.686 -9.506,-4.908 -14.568,-6.664c-5.063,-1.756 -9.764,-2.635 -14.103,-2.635c-2.273,0 -4.185,0.155 -5.734,0.465c-1.55,0.31 -2.841,0.827 -3.875,1.55c-1.033,0.723 -1.808,1.55 -2.325,2.48c-0.517,0.93 -0.775,2.015 -0.775,3.255c0,1.653 0.517,3.203 1.55,4.649c1.033,1.447 2.686,2.686 4.959,3.72c1.86,0.827 5.011,1.963 9.454,3.41c4.443,1.447 11.004,3.41 19.683,5.889c9.299,2.686 17.513,5.786 24.642,9.299c7.129,3.513 12.864,7.646 17.203,12.399c2.893,3.306 5.166,7.026 6.819,11.159c1.653,4.133 2.48,8.576 2.48,13.329c0,11.365 -3.255,21.439 -9.764,30.222c-6.509,8.782 -15.447,15.705 -26.812,20.768c-11.365,5.063 -24.384,7.594 -39.056,7.594Z" style="fill:url(#_Linear10);fill-rule:nonzero;"/>
    <defs>
        <linearGradient id="_Linear1" x1="0" y1="0" x2="1" y2="0" gradientUnits="userSpaceOnUse" gradientTransform="matrix(2144.649549,0,0,2144.649549,11.496932,169.881317)"><stop offset="0" style="stop-color:#7f2eff;stop-opacity:1"/><stop offset="0.56" style="stop-color:#7b0eb9;stop-opacity:1"/><stop offset="1" style="stop-color:#79009b;stop-opacity:1"/></linearGradient>
        <linearGradient id="_Linear2" x1="0" y1="0" x2="1" y2="0" gradientUnits="userSpaceOnUse" gradientTransform="matrix(2144.649549,0,0,2144.649549,11.496932,169.881317)"><stop offset="0" style="stop-color:#7f2eff;stop-opacity:1"/><stop offset="0.56" style="stop-color:#7b0eb9;stop-opacity:1"/><stop offset="1" style="stop-color:#79009b;stop-opacity:1"/></linearGradient>
        <linearGradient id="_Linear3" x1="0" y1="0" x2="1" y2="0" gradientUnits="userSpaceOnUse" gradientTransform="matrix(2144.649549,0,0,2144.649549,11.496932,169.881317)"><stop offset="0" style="stop-color:#7f2eff;stop-opacity:1"/><stop offset="0.56" style="stop-color:#7b0eb9;stop-opacity:1"/><stop offset="1" style="stop-color:#79009b;stop-opacity:1"/></linearGradient>
        <linearGradient id="_Linear4" x1="0" y1="0" x2="1" y2="0" gradientUnits="userSpaceOnUse" gradientTransform="matrix(2144.649549,0,0,2144.649549,11.496932,169.881317)"><stop offset="0" style="stop-color:#7f2eff;stop-opacity:1"/><stop offset="0.56" style="stop-color:#7b0eb9;stop-opacity:1"/><stop offset="1" style="stop-color:#79009b;stop-opacity:1"/></linearGradient>
        <linearGradient id="_Linear5" x1="0" y1="0" x2="1" y2="0" gradientUnits="userSpaceOnUse" gradientTransform="matrix(2144.649549,0,0,2144.649549,11.496932,169.881317)"><stop offset="0" style="stop-color:#7f2eff;stop-opacity:1"/><stop offset="0.56" style="stop-color:#7b0eb9;stop-opacity:1"/><stop offset="1" style="stop-color:#79009b;stop-opacity:1"/></linearGradient>
        <linearGradient id="_Linear6" x1="0" y1="0" x2="1" y2="0" gradientUnits="userSpaceOnUse" gradientTransform="matrix(2144.649549,0,0,2144.649549,11.496932,169.881317)"><stop offset="0" style="stop-color:#7f2eff;stop-opacity:1"/><stop offset="0.56" style="stop-color:#7b0eb9;stop-opacity:1"/><stop offset="1" style="stop-color:#79009b;stop-opacity:1"/></linearGradient>
        <linearGradient id="_Linear7" x1="0" y1="0" x2="1" y2="0" gradientUnits="userSpaceOnUse" gradientTransform="matrix(2144.649549,0,0,2144.649549,11.496932,169.881317)"><stop offset="0" style="stop-color:#7f2eff;stop-opacity:1"/><stop offset="0.56" style="stop-color:#7b0eb9;stop-opacity:1"/><stop offset="1" style="stop-color:#79009b;stop-opacity:1"/></linearGradient>
        <linearGradient id="_Linear8" x1="0" y1="0" x2="1" y2="0" gradientUnits="userSpaceOnUse" gradientTransform="matrix(2144.649549,0,0,2144.649549,11.496932,169.881317)"><stop offset="0" style="stop-color:#7f2eff;stop-opacity:1"/><stop offset="0.56" style="stop-color:#7b0eb9;stop-opacity:1"/><stop offset="1" style="stop-color:#79009b;stop-opacity:1"/></linearGradient>
        <linearGradient id="_Linear9" x1="0" y1="0" x2="1" y2="0" gradientUnits="userSpaceOnUse" gradientTransform="matrix(2144.649549,0,0,2144.649549,11.496932,169.881317)"><stop offset="0" style="stop-color:#7f2eff;stop-opacity:1"/><stop offset="0.56" style="stop-color:#7b0eb9;stop-opacity:1"/><stop offset="1" style="stop-color:#79009b;stop-opacity:1"/></linearGradient>
        <linearGradient id="_Linear10" x1="0" y1="0" x2="1" y2="0" gradientUnits="userSpaceOnUse" gradientTransform="matrix(2144.649549,0,0,2144.649549,11.496932,169.881317)"><stop offset="0" style="stop-color:#7f2eff;stop-opacity:1"/><stop offset="0.56" style="stop-color:#7b0eb9;stop-opacity:1"/><stop offset="1" style="stop-color:#79009b;stop-opacity:1"/></linearGradient>
    </defs>
</svg>
