<?xml version="1.0" encoding="UTF-8" standalone="no"?>
<!DOCTYPE svg PUBLIC "-//W3C//DTD SVG 1.1//EN" "http://www.w3.org/Graphics/SVG/1.1/DTD/svg11.dtd">
<svg width="100%" height="100%" viewBox="0 0 2586 2583" version="1.1" xmlns="http://www.w3.org/2000/svg" xmlns:xlink="http://www.w3.org/1999/xlink" xml:space="preserve" xmlns:serif="http://www.serif.com/" style="fill-rule:evenodd;clip-rule:evenodd;stroke-linejoin:round;stroke-miterlimit:2;">
    <rect id="logo-icon" x="0" y="0" width="2585.938" height="2582.031" style="fill:none;"/>
    <path d="M1292.969,44.278c143.574,0 916.786,372.359 1006.303,484.61c89.517,112.251 280.484,948.934 248.536,1088.908c-31.948,139.974 -567.027,810.942 -696.383,873.237c-129.356,62.294 -987.556,62.294 -1116.912,0c-129.356,-62.294 -664.435,-733.262 -696.383,-873.237c-31.948,-139.974 159.019,-976.658 248.536,-1088.908c89.517,-112.251 862.729,-484.61 1006.303,-484.61Zm477.286,1549.606c1.313,-4.596 0.985,-9.029 -0.985,-13.297c-1.97,-4.268 -4.268,-8.372 -6.895,-12.312c3.283,-3.94 9.521,-9.193 18.714,-15.759c9.193,-6.566 19.207,-12.969 30.041,-19.207c10.835,-6.238 21.341,-12.148 31.519,-17.729c10.178,-5.581 17.565,-9.685 22.162,-12.312c35.459,-19.043 71.245,-37.1 107.361,-54.173c36.115,-17.073 72.887,-32.832 110.315,-47.278c3.283,-1.313 9.193,-3.94 17.729,-7.88c8.536,-3.94 13.789,-7.551 15.759,-10.835c6.566,-9.85 6.074,-19.863 -1.477,-30.041c-7.551,-10.178 -16.252,-18.55 -26.101,-25.116c-10.506,-7.223 -21.669,-12.804 -33.489,-16.744c-11.82,-3.94 -23.967,-7.223 -36.443,-9.85c-19.043,-3.94 -38.413,-7.223 -58.113,-9.85c-19.699,-2.627 -39.398,-4.925 -59.098,-6.895c-48.591,-5.253 -96.854,-9.685 -144.789,-13.297c-47.935,-3.612 -96.526,-7.716 -145.774,-12.312c-1.313,-0.657 -4.925,-2.298 -10.835,-4.925c-5.91,-2.627 -9.521,-4.268 -10.835,-4.925c-7.88,-3.283 -16.744,-5.089 -26.594,-5.417c-9.85,-0.328 -16.416,3.119 -19.699,10.342c-3.283,5.91 -2.791,12.804 1.477,20.684c4.268,7.88 8.7,14.446 13.297,19.699c9.85,11.163 21.833,19.699 35.951,25.609c14.118,5.91 28.4,9.85 42.846,11.82c5.91,1.313 16.416,2.627 31.519,3.94c15.103,1.313 32.504,2.791 52.203,4.432c19.699,1.642 40.383,3.447 62.052,5.417c21.669,1.97 42.353,3.776 62.052,5.417c19.699,1.642 37.1,3.119 52.203,4.432c15.103,1.313 25.609,2.298 31.519,2.955c-39.398,17.729 -78.797,36.443 -118.195,56.143c-7.88,3.94 -19.207,9.685 -33.981,17.237c-14.774,7.551 -30.041,15.759 -45.801,24.624c-15.759,8.865 -30.37,18.058 -43.831,27.579c-13.461,9.521 -22.162,17.893 -26.101,25.116c-3.283,5.253 -4.925,10.999 -4.925,17.237c0,6.238 0.985,11.984 2.955,17.237c5.91,15.759 16.416,29.385 31.519,40.876c15.103,11.491 31.19,18.878 48.263,22.162c6.566,1.313 13.297,1.149 20.192,-0.492c6.895,-1.642 10.999,-5.746 12.312,-12.312Zm-930.787,-83.722c3.283,-5.253 2.955,-11.491 -0.985,-18.714c-3.94,-7.223 -8.208,-13.133 -12.804,-17.729c-7.88,-8.536 -17.073,-15.595 -27.579,-21.177c-10.506,-5.581 -21.341,-9.029 -32.504,-10.342c-4.596,0 -14.118,-0.492 -28.564,-1.477c-14.446,-0.985 -30.041,-2.134 -46.786,-3.447c-16.744,-1.313 -32.34,-2.462 -46.786,-3.447c-14.446,-0.985 -23.967,-1.806 -28.564,-2.462c34.145,-24.296 69.111,-46.95 104.898,-67.962c35.787,-21.012 71.081,-43.01 105.883,-65.992c3.283,-1.97 8.208,-5.581 14.774,-10.835c6.566,-5.253 13.625,-10.835 21.177,-16.744c7.551,-5.91 14.446,-11.82 20.684,-17.729c6.238,-5.91 10.342,-10.506 12.312,-13.789c3.283,-5.253 3.119,-11.491 -0.492,-18.714c-3.612,-7.223 -7.716,-13.133 -12.312,-17.729c-7.223,-7.223 -15.103,-13.297 -23.639,-18.222c-8.536,-4.925 -17.729,-8.372 -27.579,-10.342c-7.88,-2.627 -15.431,-3.283 -22.654,-1.97c-7.223,1.97 -13.789,6.566 -19.699,13.789c-7.223,9.193 -15.759,17.401 -25.609,24.624c-9.85,7.223 -20.028,14.118 -30.534,20.684c-27.579,19.043 -55.814,36.936 -84.707,53.68c-28.892,16.744 -57.456,34.309 -85.691,52.695c-11.163,7.223 -22.326,14.61 -33.489,22.162c-11.163,7.551 -21.997,15.595 -32.504,24.132c-5.253,3.94 -10.014,8.044 -14.282,12.312c-4.268,4.268 -8.044,9.029 -11.327,14.282c-3.94,6.566 -5.417,13.297 -4.432,20.192c0.985,6.895 3.447,13.461 7.387,19.699c3.94,6.238 8.865,11.984 14.774,17.237c5.91,5.253 12.148,9.85 18.714,13.789c11.82,7.88 24.952,13.461 39.398,16.744c14.446,3.283 28.892,5.581 43.338,6.895c4.596,0.657 12.804,1.313 24.624,1.97c11.82,0.657 25.281,1.477 40.383,2.462c15.103,0.985 31.355,2.134 48.755,3.447c17.401,1.313 33.653,2.462 48.755,3.447c15.103,0.985 28.564,1.806 40.383,2.462c11.82,0.657 20.028,1.313 24.624,1.97c3.94,0 8.044,-0.821 12.312,-2.462c4.268,-1.642 7.716,-4.104 10.342,-7.387Zm463.916,343.751c7.223,-38.742 15.595,-77.155 25.116,-115.24c9.521,-38.085 18.878,-76.499 28.071,-115.24c13.133,-48.591 26.101,-97.019 38.906,-145.282c12.804,-48.263 26.101,-96.69 39.891,-145.282c3.283,-11.82 9.357,-32.175 18.222,-61.067c8.865,-28.892 18.878,-61.888 30.041,-98.988c11.163,-37.1 22.818,-76.334 34.966,-117.703c12.148,-41.368 23.639,-80.603 34.474,-117.703c10.835,-37.1 20.356,-70.096 28.564,-98.988c8.208,-28.892 13.625,-49.248 16.252,-61.067c2.627,-12.476 -1.642,-23.803 -12.804,-33.981c-11.163,-10.178 -22.326,-17.893 -33.489,-23.147c-10.506,-5.253 -21.997,-8.372 -34.474,-9.357c-12.476,-0.985 -20.028,4.104 -22.654,15.267c-5.253,24.952 -11.491,49.412 -18.714,73.379c-7.223,23.967 -14.446,48.099 -21.669,72.395c-34.802,116.225 -69.44,231.794 -103.913,346.706c-34.474,114.912 -66.813,231.465 -97.019,349.661c-9.85,39.398 -19.535,78.961 -29.056,118.688c-9.521,39.727 -18.222,79.946 -26.101,120.658c-1.313,5.253 -0.492,10.342 2.462,15.267c2.955,4.925 6.074,9.685 9.357,14.282c6.566,7.223 14.446,13.625 23.639,19.207c9.193,5.581 18.714,10.014 28.564,13.297c9.193,1.97 18.058,2.134 26.594,0.492c8.536,-1.642 13.461,-7.059 14.774,-16.252Zm-312.232,0c7.223,-38.742 15.595,-77.155 25.116,-115.24c9.521,-38.085 18.878,-76.499 28.071,-115.24c13.133,-48.591 26.101,-97.019 38.906,-145.282c12.804,-48.263 26.101,-96.69 39.891,-145.282c3.283,-11.82 9.357,-32.175 18.222,-61.067c8.865,-28.892 18.878,-61.888 30.041,-98.988c11.163,-37.1 22.818,-76.334 34.966,-117.703c12.148,-41.368 23.639,-80.603 34.474,-117.703c10.835,-37.1 20.356,-70.096 28.564,-98.988c8.208,-28.892 13.625,-49.248 16.252,-61.067c2.627,-12.476 -1.642,-23.803 -12.804,-33.981c-11.163,-10.178 -22.326,-17.893 -33.489,-23.147c-10.506,-5.253 -21.997,-8.372 -34.474,-9.357c-12.476,-0.985 -20.028,4.104 -22.654,15.267c-5.253,24.952 -11.491,49.412 -18.714,73.379c-7.223,23.967 -14.446,48.099 -21.669,72.395c-34.802,116.225 -69.44,231.794 -103.913,346.706c-34.474,114.912 -66.813,231.465 -97.019,349.661c-9.85,39.398 -19.535,78.961 -29.056,118.688c-9.521,39.727 -18.222,79.946 -26.101,120.658c-1.313,5.253 -0.492,10.342 2.462,15.267c2.955,4.925 6.074,9.685 9.357,14.282c6.566,7.223 14.446,13.625 23.639,19.207c9.193,5.581 18.714,10.014 28.564,13.297c9.193,1.97 18.058,2.134 26.594,0.492c8.536,-1.642 13.461,-7.059 14.774,-16.252Z" style="fill:url(#_Linear1);"/>
    <defs>
        <linearGradient id="_Linear1" x1="0" y1="0" x2="1" y2="0" gradientUnits="userSpaceOnUse" gradientTransform="matrix(2553.324647,980.46875,-980.46875,2553.324647,34.565978,776.699656)"><stop offset="0" style="stop-color:#4a00aa;stop-opacity:1"/><stop offset="0.58" style="stop-color:#8700da;stop-opacity:1"/><stop offset="1" style="stop-color:#a400f0;stop-opacity:1"/></linearGradient>
    </defs>
</svg>
