<?xml version="1.0" encoding="UTF-8" standalone="no"?>
<!DOCTYPE svg PUBLIC "-//W3C//DTD SVG 1.1//EN" "http://www.w3.org/Graphics/SVG/1.1/DTD/svg11.dtd">
<svg width="100%" height="100%" viewBox="0 0 2034 466" version="1.1" xmlns="http://www.w3.org/2000/svg" xmlns:xlink="http://www.w3.org/1999/xlink" xml:space="preserve" xmlns:serif="http://www.serif.com/" style="fill-rule:evenodd;clip-rule:evenodd;stroke-linejoin:round;stroke-miterlimit:2;">
    <rect id="logo-full" x="0" y="0" width="2034" height="466" style="fill:none;"/>
    <path d="M275.781,25.21c23.929,0 152.798,62.06 167.717,80.768c14.919,18.708 46.747,158.156 41.423,181.485c-5.325,23.329 -94.505,135.157 -116.064,145.539c-21.559,10.382 -164.593,10.382 -186.152,0c-21.559,-10.382 -110.739,-122.21 -116.064,-145.539c-5.325,-23.329 26.503,-162.776 41.423,-181.485c14.919,-18.708 143.788,-80.768 167.717,-80.768Zm79.548,258.268c0.219,-0.766 0.164,-1.505 -0.164,-2.216c-0.328,-0.711 -0.711,-1.395 -1.149,-2.052c0.547,-0.657 1.587,-1.532 3.119,-2.627c1.532,-1.094 3.201,-2.161 5.007,-3.201c1.806,-1.04 3.557,-2.025 5.253,-2.955c1.696,-0.93 2.928,-1.614 3.694,-2.052c5.91,-3.174 11.874,-6.183 17.893,-9.029c6.019,-2.845 12.148,-5.472 18.386,-7.88c0.547,-0.219 1.532,-0.657 2.955,-1.313c1.423,-0.657 2.298,-1.259 2.627,-1.806c1.094,-1.642 1.012,-3.311 -0.246,-5.007c-1.259,-1.696 -2.709,-3.092 -4.35,-4.186c-1.751,-1.204 -3.612,-2.134 -5.581,-2.791c-1.97,-0.657 -3.995,-1.204 -6.074,-1.642c-3.174,-0.657 -6.402,-1.204 -9.685,-1.642c-3.283,-0.438 -6.566,-0.821 -9.85,-1.149c-8.099,-0.876 -16.142,-1.614 -24.132,-2.216c-7.989,-0.602 -16.088,-1.286 -24.296,-2.052c-0.219,-0.109 -0.821,-0.383 -1.806,-0.821c-0.985,-0.438 -1.587,-0.711 -1.806,-0.821c-1.313,-0.547 -2.791,-0.848 -4.432,-0.903c-1.642,-0.055 -2.736,0.52 -3.283,1.724c-0.547,0.985 -0.465,2.134 0.246,3.447c0.711,1.313 1.45,2.408 2.216,3.283c1.642,1.86 3.639,3.283 5.992,4.268c2.353,0.985 4.733,1.642 7.141,1.97c0.985,0.219 2.736,0.438 5.253,0.657c2.517,0.219 5.417,0.465 8.7,0.739c3.283,0.274 6.731,0.575 10.342,0.903c3.612,0.328 7.059,0.629 10.342,0.903c3.283,0.274 6.183,0.52 8.7,0.739c2.517,0.219 4.268,0.383 5.253,0.492c-6.566,2.955 -13.133,6.074 -19.699,9.357c-1.313,0.657 -3.201,1.614 -5.664,2.873c-2.462,1.259 -5.007,2.627 -7.633,4.104c-2.627,1.477 -5.062,3.01 -7.305,4.596c-2.244,1.587 -3.694,2.982 -4.35,4.186c-0.547,0.876 -0.821,1.833 -0.821,2.873c0,1.04 0.164,1.997 0.492,2.873c0.985,2.627 2.736,4.897 5.253,6.813c2.517,1.915 5.198,3.146 8.044,3.694c1.094,0.219 2.216,0.192 3.365,-0.082c1.149,-0.274 1.833,-0.958 2.052,-2.052Zm-155.131,-13.954c0.547,-0.876 0.492,-1.915 -0.164,-3.119c-0.657,-1.204 -1.368,-2.189 -2.134,-2.955c-1.313,-1.423 -2.845,-2.599 -4.596,-3.529c-1.751,-0.93 -3.557,-1.505 -5.417,-1.724c-0.766,0 -2.353,-0.082 -4.761,-0.246c-2.408,-0.164 -5.007,-0.356 -7.798,-0.575c-2.791,-0.219 -5.39,-0.41 -7.798,-0.575c-2.408,-0.164 -3.995,-0.301 -4.761,-0.41c5.691,-4.049 11.519,-7.825 17.483,-11.327c5.964,-3.502 11.847,-7.168 17.647,-10.999c0.547,-0.328 1.368,-0.93 2.462,-1.806c1.094,-0.876 2.271,-1.806 3.529,-2.791c1.259,-0.985 2.408,-1.97 3.447,-2.955c1.04,-0.985 1.724,-1.751 2.052,-2.298c0.547,-0.876 0.52,-1.915 -0.082,-3.119c-0.602,-1.204 -1.286,-2.189 -2.052,-2.955c-1.204,-1.204 -2.517,-2.216 -3.94,-3.037c-1.423,-0.821 -2.955,-1.395 -4.596,-1.724c-1.313,-0.438 -2.572,-0.547 -3.776,-0.328c-1.204,0.328 -2.298,1.094 -3.283,2.298c-1.204,1.532 -2.627,2.9 -4.268,4.104c-1.642,1.204 -3.338,2.353 -5.089,3.447c-4.596,3.174 -9.302,6.156 -14.118,8.947c-4.815,2.791 -9.576,5.718 -14.282,8.783c-1.86,1.204 -3.721,2.435 -5.581,3.694c-1.86,1.259 -3.666,2.599 -5.417,4.022c-0.876,0.657 -1.669,1.341 -2.38,2.052c-0.711,0.711 -1.341,1.505 -1.888,2.38c-0.657,1.094 -0.903,2.216 -0.739,3.365c0.164,1.149 0.575,2.244 1.231,3.283c0.657,1.04 1.477,1.997 2.462,2.873c0.985,0.876 2.025,1.642 3.119,2.298c1.97,1.313 4.159,2.244 6.566,2.791c2.408,0.547 4.815,0.93 7.223,1.149c0.766,0.109 2.134,0.219 4.104,0.328c1.97,0.109 4.213,0.246 6.731,0.41c2.517,0.164 5.226,0.356 8.126,0.575c2.9,0.219 5.609,0.41 8.126,0.575c2.517,0.164 4.761,0.301 6.731,0.41c1.97,0.109 3.338,0.219 4.104,0.328c0.657,0 1.341,-0.137 2.052,-0.41c0.711,-0.274 1.286,-0.684 1.724,-1.231Zm79.486,40.792c1.204,-6.457 2.599,-12.859 4.186,-19.207c1.587,-6.348 3.146,-12.75 4.679,-19.207c2.189,-8.099 2.184,0.33 4.318,-7.714c2.134,-8.044 4.35,-16.115 6.648,-24.214c0.547,-1.97 1.56,-5.363 3.037,-10.178c1.477,-4.815 3.146,-10.315 5.007,-16.498c1.86,-6.183 3.803,-12.722 5.828,-19.617c2.025,-6.895 -8.393,30.9 -6.588,24.716c1.806,-6.183 3.393,-11.683 4.761,-16.498c1.368,-4.815 2.271,-8.208 2.709,-10.178c0.438,-2.079 -0.274,-3.967 -2.134,-5.664c-1.86,-1.696 -3.721,-2.982 -5.581,-3.858c-1.751,-0.876 -3.666,-1.395 -5.746,-1.56c-2.079,-0.164 -3.338,0.684 -3.776,2.544c-0.876,4.159 -1.915,8.235 -3.119,12.23c-1.204,3.995 -2.408,8.016 -3.612,12.066c-5.8,19.371 0.76,-5.701 -4.986,13.451c-5.746,19.152 -8.969,22.078 -14.003,41.777c-1.642,6.566 -3.256,13.16 -4.843,19.781c-1.587,6.621 -3.037,13.324 -4.35,20.11c-0.219,0.876 -0.082,1.724 0.41,2.544c0.492,0.821 1.012,1.614 1.56,2.38c1.094,1.204 2.408,2.271 3.94,3.201c1.532,0.93 3.119,1.669 4.761,2.216c1.532,0.328 3.01,0.356 4.432,0.082c1.423,-0.274 2.244,-1.176 2.462,-2.709Zm-54.205,16.5c1.204,-6.457 2.599,-12.859 4.186,-19.207c1.587,-6.348 3.146,-12.75 4.679,-19.207c2.189,-8.099 4.35,-16.17 6.484,-24.214c2.134,-8.044 4.35,-16.115 6.648,-24.214c0.547,-1.97 1.56,-5.363 3.037,-10.178c1.477,-4.815 3.146,-10.315 5.007,-16.498c1.86,-6.183 3.803,-12.722 5.828,-19.617c2.025,-6.895 3.94,-13.434 5.746,-19.617c1.806,-6.183 3.393,-11.683 4.761,-16.498c1.368,-4.815 2.271,-8.208 2.709,-10.178c0.438,-2.079 -0.274,-3.967 -2.134,-5.664c-1.86,-1.696 -3.721,-2.982 -5.581,-3.858c-1.751,-0.876 -3.666,-1.395 -5.746,-1.56c-2.079,-0.164 -3.338,0.684 -3.776,2.544c-0.876,4.159 -1.915,8.235 -3.119,12.23c-1.204,3.995 -2.408,8.016 -3.612,12.066c-5.8,19.371 -11.573,38.632 -17.319,57.784c-5.746,19.152 -11.136,38.578 -16.17,58.277c-1.642,6.566 -3.256,13.16 -4.843,19.781c-1.587,6.621 -3.037,13.324 -4.35,20.11c-0.219,0.876 -0.082,1.724 0.41,2.544c0.492,0.821 1.012,1.614 1.56,2.38c1.094,1.204 2.408,2.271 3.94,3.201c1.532,0.93 3.119,1.669 4.761,2.216c1.532,0.328 3.01,0.356 4.432,0.082c1.423,-0.274 2.244,-1.176 2.462,-2.709Z" style="fill:url(#_Linear1);"/>
    <rect id="Artboard1" x="525.781" y="48.273" width="1482.438" height="369.453" style="fill:none;"/>
    <path d="M550.077,315.915l0,-151.138l49.265,0l2.36,30.606l-11.003,3.401c2.046,-7.085 5.768,-13.414 11.167,-18.987c5.402,-5.573 11.882,-9.989 19.439,-13.248c7.557,-3.259 15.539,-4.888 23.946,-4.888c11.335,0 20.938,2.338 28.808,7.014c7.873,4.676 13.817,11.588 17.831,20.736c4.015,9.145 6.022,20.299 6.022,33.462l0,93.044l-52.803,0l0,-88.7c0,-4.88 -0.741,-8.965 -2.223,-12.257c-1.479,-3.291 -3.715,-5.778 -6.708,-7.461c-2.99,-1.686 -6.564,-2.497 -10.72,-2.435c-3.306,0 -6.336,0.505 -9.091,1.514c-2.754,1.007 -5.132,2.487 -7.133,4.441c-1.998,1.951 -3.557,4.147 -4.676,6.589c-1.116,2.438 -1.674,5.169 -1.674,8.192l0,90.117l-52.807,0Z" style="fill:url(#_Linear2);fill-rule:nonzero;"/>
    <path d="M736.643,315.915l0,-151.138l52.803,0l0,151.138l-52.803,0Zm26.448,-179.526c-9.541,0 -16.996,-2.235 -22.365,-6.704c-5.367,-4.472 -8.05,-10.817 -8.05,-19.036c0,-7.527 2.731,-13.7 8.192,-18.518c5.464,-4.818 12.872,-7.226 22.224,-7.226c9.541,0 16.994,2.236 22.361,6.708c5.37,4.472 8.054,10.817 8.054,19.036c0,7.525 -2.732,13.696 -8.196,18.513c-5.461,4.818 -12.868,7.226 -22.219,7.226Z" style="fill:url(#_Linear3);fill-rule:nonzero;"/>
    <path d="M837.387,315.915l0,-154.397c0,-10.391 2.243,-19.837 6.73,-28.339c4.487,-8.502 10.783,-15.31 18.89,-20.426c8.109,-5.119 17.611,-7.678 28.507,-7.678c7.463,-0 14.389,1.055 20.78,3.166c6.391,2.108 12.295,4.973 17.712,8.595l-14.169,37.974c-2.456,-0.85 -4.716,-1.511 -6.779,-1.984c-2.06,-0.472 -3.863,-0.708 -5.406,-0.708c-3.179,0 -5.746,0.576 -7.7,1.727c-1.951,1.148 -3.392,2.84 -4.322,5.074c-0.927,2.235 -1.39,4.99 -1.39,8.267l0,148.73l-52.852,0Zm-21.21,-103.954l0,-42.273l103.06,0l0,42.273l-103.06,0Z" style="fill:url(#_Linear4);fill-rule:nonzero;"/>
    <path d="M952.819,315.915l0,-189.351l52.803,0l0,189.351l-52.803,0Zm-24.748,-106.27l0,-44.868l104.096,0l0,44.868l-104.096,0Z" style="fill:url(#_Linear5);fill-rule:nonzero;"/>
    <path d="M1074.108,381.094l36.415,-85.725l0.518,23.238l-71.648,-153.831l59.038,0l25.221,60.264c2.049,4.723 3.852,9.375 5.411,13.957c1.559,4.581 2.731,8.919 3.516,13.014l-5.951,4.534c0.883,-2.394 2.071,-5.771 3.564,-10.131c1.497,-4.36 3.142,-9.312 4.937,-14.856l23.003,-66.782l59.135,0l-65.228,151.138l-26.404,65.179l-51.528,0Z" style="fill:url(#_Linear6);fill-rule:nonzero;"/>
    <path d="M1284.949,315.915l0,-150.005l-60.269,0l0,-48.366l178.348,0l0,48.366l-61.969,0l0,150.005l-56.111,0Z" style="fill:url(#_Linear7);fill-rule:nonzero;"/>
    <path d="M1476.142,318.749c-16.124,0 -30.491,-3.392 -43.101,-10.175c-12.611,-6.787 -22.537,-16.067 -29.778,-27.843c-7.241,-11.778 -10.862,-25.288 -10.862,-40.529c0,-15.238 3.621,-28.745 10.862,-40.52c7.241,-11.778 17.167,-21.059 29.778,-27.843c12.611,-6.787 26.978,-10.18 43.101,-10.18c16.088,0 30.398,3.393 42.929,10.18c12.534,6.784 22.382,16.065 29.543,27.843c7.164,11.775 10.747,25.282 10.747,40.52c0,15.241 -3.582,28.751 -10.747,40.529c-7.161,11.775 -17.009,21.056 -29.543,27.843c-12.531,6.784 -26.841,10.175 -42.929,10.175Zm0,-44.585c5.73,0 10.869,-1.472 15.418,-4.415c4.552,-2.946 8.103,-6.984 10.654,-12.115c2.55,-5.133 3.809,-10.944 3.777,-17.433c0.032,-6.674 -1.227,-12.577 -3.777,-17.707c-2.55,-5.133 -6.102,-9.164 -10.654,-12.093c-4.549,-2.928 -9.688,-4.393 -15.418,-4.393c-5.889,0 -11.117,1.472 -15.684,4.415c-4.564,2.943 -8.161,6.981 -10.791,12.115c-2.63,5.133 -3.929,11.021 -3.897,17.663c-0.032,6.488 1.266,12.299 3.897,17.433c2.63,5.13 6.227,9.169 10.791,12.115c4.567,2.943 9.795,4.415 15.684,4.415Z" style="fill:url(#_Linear8);fill-rule:nonzero;"/>
    <path d="M1660.911,318.749c-16.124,0 -30.491,-3.392 -43.101,-10.175c-12.611,-6.787 -22.537,-16.067 -29.778,-27.843c-7.241,-11.778 -10.862,-25.288 -10.862,-40.529c0,-15.238 3.621,-28.745 10.862,-40.52c7.241,-11.778 17.167,-21.059 29.778,-27.843c12.611,-6.787 26.978,-10.18 43.101,-10.18c16.088,0 30.398,3.393 42.929,10.18c12.534,6.784 22.382,16.065 29.543,27.843c7.164,11.775 10.747,25.282 10.747,40.52c0,15.241 -3.582,28.751 -10.747,40.529c-7.161,11.775 -17.009,21.056 -29.543,27.843c-12.531,6.784 -26.841,10.175 -42.929,10.175Zm0,-44.585c5.73,0 10.869,-1.472 15.418,-4.415c4.552,-2.946 8.103,-6.984 10.654,-12.115c2.55,-5.133 3.809,-10.944 3.777,-17.433c0.032,-6.674 -1.227,-12.577 -3.777,-17.707c-2.55,-5.133 -6.102,-9.164 -10.654,-12.093c-4.549,-2.928 -9.688,-4.393 -15.418,-4.393c-5.889,0 -11.117,1.472 -15.684,4.415c-4.564,2.943 -8.161,6.981 -10.791,12.115c-2.63,5.133 -3.929,11.021 -3.897,17.663c-0.032,6.488 1.266,12.299 3.897,17.433c2.63,5.13 6.227,9.169 10.791,12.115c4.567,2.943 9.795,4.415 15.684,4.415Z" style="fill:url(#_Linear9);fill-rule:nonzero;"/>
    <rect x="1772.99" y="106.209" width="52.803" height="209.707" style="fill:url(#_Linear10);fill-rule:nonzero;"/>
    <path d="M1917.327,318.749c-15.775,0 -29.576,-2.447 -41.401,-7.342c-11.823,-4.897 -21.118,-11.204 -27.887,-18.921l31.173,-26.683c5.984,5.508 12.801,9.57 20.453,12.186c7.651,2.612 14.389,3.919 20.213,3.919c2.14,0 4.044,-0.189 5.712,-0.567c1.671,-0.378 3.041,-0.983 4.109,-1.815c1.072,-0.835 1.898,-1.765 2.48,-2.79c0.584,-1.024 0.877,-2.245 0.877,-3.662c0,-3.179 -1.559,-5.572 -4.676,-7.178c-1.733,-0.85 -4.552,-1.88 -8.457,-3.091c-3.902,-1.213 -8.987,-2.592 -15.254,-4.136c-7.964,-2.046 -15.087,-4.549 -21.369,-7.51c-6.282,-2.961 -11.548,-6.392 -15.799,-10.295c-4.251,-4.062 -7.55,-8.651 -9.896,-13.766c-2.347,-5.119 -3.52,-10.859 -3.52,-17.22c0,-7.492 1.724,-14.19 5.172,-20.094c3.448,-5.904 8.171,-10.95 14.169,-15.139c5.998,-4.189 12.769,-7.401 20.311,-9.635c7.542,-2.235 15.312,-3.352 23.309,-3.352c8.879,0 17.239,0.905 25.08,2.714c7.84,1.81 15.2,4.391 22.078,7.744c6.881,3.353 13.093,7.33 18.637,11.929l-27.112,30.225c-3.274,-2.801 -7.036,-5.454 -11.287,-7.957c-4.251,-2.503 -8.667,-4.549 -13.248,-6.137c-4.581,-1.591 -8.825,-2.387 -12.73,-2.387c-2.394,0 -4.449,0.182 -6.164,0.545c-1.715,0.36 -3.148,0.942 -4.3,1.745c-1.148,0.803 -2.015,1.748 -2.599,2.834c-0.582,1.086 -0.872,2.338 -0.872,3.755c0.032,1.668 0.528,3.234 1.488,4.698c0.962,1.464 2.466,2.716 4.512,3.755c1.762,0.883 4.682,2.018 8.758,3.405c4.08,1.384 9.961,3.147 17.645,5.287c8.658,2.456 16.214,5.266 22.667,8.431c6.456,3.164 11.637,6.872 15.542,11.123c2.834,3.117 5.007,6.645 6.518,10.583c1.511,3.935 2.267,8.201 2.267,12.797c0,10.075 -2.881,19.018 -8.643,26.829c-5.762,7.808 -13.65,13.955 -23.663,18.442c-10.013,4.487 -21.443,6.73 -34.29,6.73Z" style="fill:url(#_Linear11);fill-rule:nonzero;"/>
    <defs>
        <linearGradient id="_Linear1" x1="0" y1="0" x2="1" y2="0" gradientUnits="userSpaceOnUse" gradientTransform="matrix(425.554108,163.411458,-163.411458,425.554108,66.047144,147.280671)"><stop offset="0" style="stop-color:#4a00aa;stop-opacity:1"/><stop offset="0.58" style="stop-color:#8700da;stop-opacity:1"/><stop offset="1" style="stop-color:#a400f0;stop-opacity:1"/></linearGradient>
        <linearGradient id="_Linear2" x1="0" y1="0" x2="1" y2="0" gradientUnits="userSpaceOnUse" gradientTransform="matrix(1960.756672,0,0,1960.756672,530.146536,209.644902)"><stop offset="0" style="stop-color:#7f2eff;stop-opacity:1"/><stop offset="0.56" style="stop-color:#7b0eb9;stop-opacity:1"/><stop offset="1" style="stop-color:#79009b;stop-opacity:1"/></linearGradient>
        <linearGradient id="_Linear3" x1="0" y1="0" x2="1" y2="0" gradientUnits="userSpaceOnUse" gradientTransform="matrix(1960.756672,0,0,1960.756672,530.146536,209.644902)"><stop offset="0" style="stop-color:#7f2eff;stop-opacity:1"/><stop offset="0.56" style="stop-color:#7b0eb9;stop-opacity:1"/><stop offset="1" style="stop-color:#79009b;stop-opacity:1"/></linearGradient>
        <linearGradient id="_Linear4" x1="0" y1="0" x2="1" y2="0" gradientUnits="userSpaceOnUse" gradientTransform="matrix(1960.756672,0,0,1960.756672,530.146536,209.644902)"><stop offset="0" style="stop-color:#7f2eff;stop-opacity:1"/><stop offset="0.56" style="stop-color:#7b0eb9;stop-opacity:1"/><stop offset="1" style="stop-color:#79009b;stop-opacity:1"/></linearGradient>
        <linearGradient id="_Linear5" x1="0" y1="0" x2="1" y2="0" gradientUnits="userSpaceOnUse" gradientTransform="matrix(1960.756672,0,0,1960.756672,530.146536,209.644902)"><stop offset="0" style="stop-color:#7f2eff;stop-opacity:1"/><stop offset="0.56" style="stop-color:#7b0eb9;stop-opacity:1"/><stop offset="1" style="stop-color:#79009b;stop-opacity:1"/></linearGradient>
        <linearGradient id="_Linear6" x1="0" y1="0" x2="1" y2="0" gradientUnits="userSpaceOnUse" gradientTransform="matrix(1960.756672,0,0,1960.756672,530.146536,209.644902)"><stop offset="0" style="stop-color:#7f2eff;stop-opacity:1"/><stop offset="0.56" style="stop-color:#7b0eb9;stop-opacity:1"/><stop offset="1" style="stop-color:#79009b;stop-opacity:1"/></linearGradient>
        <linearGradient id="_Linear7" x1="0" y1="0" x2="1" y2="0" gradientUnits="userSpaceOnUse" gradientTransform="matrix(1960.756672,0,0,1960.756672,530.146536,209.644902)"><stop offset="0" style="stop-color:#7f2eff;stop-opacity:1"/><stop offset="0.56" style="stop-color:#7b0eb9;stop-opacity:1"/><stop offset="1" style="stop-color:#79009b;stop-opacity:1"/></linearGradient>
        <linearGradient id="_Linear8" x1="0" y1="0" x2="1" y2="0" gradientUnits="userSpaceOnUse" gradientTransform="matrix(1960.756672,0,0,1960.756672,530.146536,209.644902)"><stop offset="0" style="stop-color:#7f2eff;stop-opacity:1"/><stop offset="0.56" style="stop-color:#7b0eb9;stop-opacity:1"/><stop offset="1" style="stop-color:#79009b;stop-opacity:1"/></linearGradient>
        <linearGradient id="_Linear9" x1="0" y1="0" x2="1" y2="0" gradientUnits="userSpaceOnUse" gradientTransform="matrix(1960.756672,0,0,1960.756672,530.146536,209.644902)"><stop offset="0" style="stop-color:#7f2eff;stop-opacity:1"/><stop offset="0.56" style="stop-color:#7b0eb9;stop-opacity:1"/><stop offset="1" style="stop-color:#79009b;stop-opacity:1"/></linearGradient>
        <linearGradient id="_Linear10" x1="0" y1="0" x2="1" y2="0" gradientUnits="userSpaceOnUse" gradientTransform="matrix(1960.756672,0,0,1960.756672,530.146536,209.644902)"><stop offset="0" style="stop-color:#7f2eff;stop-opacity:1"/><stop offset="0.56" style="stop-color:#7b0eb9;stop-opacity:1"/><stop offset="1" style="stop-color:#79009b;stop-opacity:1"/></linearGradient>
        <linearGradient id="_Linear11" x1="0" y1="0" x2="1" y2="0" gradientUnits="userSpaceOnUse" gradientTransform="matrix(1960.756672,0,0,1960.756672,530.146536,209.644902)"><stop offset="0" style="stop-color:#7f2eff;stop-opacity:1"/><stop offset="0.56" style="stop-color:#7b0eb9;stop-opacity:1"/><stop offset="1" style="stop-color:#79009b;stop-opacity:1"/></linearGradient>
    </defs>
</svg>
